<?xml version="1.0" encoding="UTF-8"?><svg xmlns="http://www.w3.org/2000/svg" viewBox="0 0 384 207"><defs><style>.d{fill:#fff;}</style></defs><g id="a"/><g id="b"><g id="c"><g><path class="d" d="M362.67,124.83H21.33c-12.8,0-21.33-8.53-21.33-21.33s8.53-21.33,21.33-21.33H362.67c12.8,0,21.33,8.53,21.33,21.33s-8.53,21.33-21.33,21.33Z"/><path class="d" d="M362.67,207H21.33c-12.8,0-21.33-8.53-21.33-21.33s8.53-21.33,21.33-21.33H362.67c12.8,0,21.33,8.53,21.33,21.33s-8.53,21.33-21.33,21.33Z"/><path class="d" d="M362.67,42.67H21.33C8.53,42.67,0,34.13,0,21.33S8.53,0,21.33,0H362.67c12.8,0,21.33,8.53,21.33,21.33s-8.53,21.33-21.33,21.33Z"/></g></g></g></svg>